<?xml version="1.0" encoding="UTF-8" standalone="no"?>
<svg
   xmlns:dc="http://purl.org/dc/elements/1.1/"
   xmlns:cc="http://creativecommons.org/ns#"
   xmlns:rdf="http://www.w3.org/1999/02/22-rdf-syntax-ns#"
   xmlns:svg="http://www.w3.org/2000/svg"
   xmlns="http://www.w3.org/2000/svg"
   xmlns:xlink="http://www.w3.org/1999/xlink"
   xmlns:sodipodi="http://sodipodi.sourceforge.net/DTD/sodipodi-0.dtd"
   xmlns:inkscape="http://www.inkscape.org/namespaces/inkscape"
   width="1000"
   height="213.38911"
   viewBox="0 0 1000 213.38911"
   version="1.1"
   id="svg28"
   sodipodi:docname="Reynolds_Logo_1c_white.svg"
   inkscape:version="0.92.4 (5da689c313, 2019-01-14)">
  <metadata
     id="metadata32">
    <rdf:RDF>
      <cc:Work
         rdf:about="">
        <dc:format>image/svg+xml</dc:format>
        <dc:type
           rdf:resource="http://purl.org/dc/dcmitype/StillImage" />
        <dc:title>Reynolds_Logo_1c_white</dc:title>
      </cc:Work>
    </rdf:RDF>
  </metadata>
  <sodipodi:namedview
     pagecolor="#ffffff"
     bordercolor="#111111"
     borderopacity="1"
     objecttolerance="10"
     gridtolerance="10"
     guidetolerance="10"
     inkscape:pageopacity="0"
     inkscape:pageshadow="2"
     inkscape:window-width="1920"
     inkscape:window-height="1017"
     id="namedview30"
     showgrid="false"
     fit-margin-top="0"
     fit-margin-left="0"
     fit-margin-right="0"
     fit-margin-bottom="0"
     inkscape:zoom="0.69246862"
     inkscape:cx="539.62887"
     inkscape:cy="37.614384"
     inkscape:window-x="1912"
     inkscape:window-y="-8"
     inkscape:window-maximized="1"
     inkscape:current-layer="svg28" />
  <title
     id="title2">Reynolds_Logo_1c_white</title>
  <defs
     id="defs5">
    <polygon
       id="path-1"
       points="239,0 239,51 0,51 0,0 " />
    <mask
       id="mask-2"
       fill="white">
      <use
         xlink:href="#path-1"
         id="use8"
         x="0"
         y="0"
         width="100%"
         height="100%" />
    </mask>
  </defs>
  <path
     d="m 854.4354,0 c -4.12548,63.733441 -36.17,140.79214 -106.31794,213.38911 h 33.52318 C 852.16887,139.96025 885.69456,63.690972 894.48975,0 H 854.4354"
     id="Fill-4"
     mask="none"
     style="fill:#00148f;fill-opacity:0.94117647;fill-rule:evenodd;stroke:none;stroke-width:4.18410015"
     inkscape:connector-curvature="0" />
  <path
     d="m 974.63083,0 c -11.5215,62.561797 -45.84246,138.30896 -118.36384,213.38911 h 22.86159 C 951.24732,138.35393 986.45305,62.38693 1000,0 h -25.36917"
     id="Fill-5"
     mask="none"
     style="fill:#00148f;fill-opacity:0.94117647;fill-rule:evenodd;stroke:none;stroke-width:4.18410015"
     inkscape:connector-curvature="0" />
  <path
     d="M 915.29854,0 C 904.32875,64.742705 868.53159,140.65974 799.03971,213.38911 h 37.74808 C 906.67732,140.79465 942.39745,65.092449 952.97703,0 h -37.67849"
     id="Fill-6"
     mask="none"
     style="fill:#00148f;fill-opacity:0.94117647;fill-rule:evenodd;stroke:none;stroke-width:4.18410015"
     inkscape:connector-curvature="0" />
  <path
     d="M 126.59743,42.23915 C 126.54273,54.74251 114.2384,67.360792 86.878561,67.360792 H 77.25577 L 93.712933,31.19721 h 16.648517 c 6.28016,0 10.84801,1.33652 13.55939,3.96211 1.80179,1.82866 2.67659,4.14946 2.67659,7.07983 z m 0.30071,95.05555 -13.36057,-48.214775 0.49207,-0.07996 c 30.03147,-5.018837 51.00677,-26.370735 51.00677,-51.924565 0,-19.17849 -15.75385,-29.73828 -44.35879,-29.73828 H 57.987818 c -0.323097,0 -0.621306,0.16738 -0.792787,0.44218 -0.168996,0.2748 -0.186402,0.61955 -0.04226,0.90934 1.593029,3.23763 2.336112,6.06806 2.336112,8.91099 0,2.92036 -0.576573,5.63338 -1.717292,8.0766 L 7.1252003,137.64944 c -0.4448552,0.99428 -0.8723141,2.00354 -1.292317,2.99531 -1.6675861,3.93213 -3.2407337,7.64442 -5.37305689,8.906 -0.36284287,0.21485 -0.53680863,0.64702 -0.42745872,1.05423 0.1118351,0.40719 0.47964842,0.68949 0.89965149,0.68949 H 33.617701 c 0.01987,0 0.03728,0 0.05716,0 4.284528,0 6.456615,-1.6363 8.579,-6.46028 l -0.06958,-0.0301 C 43.108787,142.9704 47.69154,132.8478 74.263567,74.160671 L 90.303211,143.9347 c 1.443916,5.22868 2.47777,7.35962 6.926322,7.35962 h 34.425327 c 0.34544,0 0.66107,-0.18987 0.82261,-0.49714 0.16155,-0.30728 0.14167,-0.6795 -0.0522,-0.96679 -1.56817,-2.31331 -2.79836,-4.43926 -5.52713,-12.53584 z"
     id="Fill-7"
     mask="none"
     style="fill:#00148f;fill-opacity:0.94117647;fill-rule:evenodd;stroke:none;stroke-width:4.18410015"
     inkscape:connector-curvature="0" />
  <path
     inkscape:connector-curvature="0"
     style="fill:#00148f;fill-opacity:0.94117647;fill-rule:evenodd;stroke:none;stroke-width:4.18410015"
     id="Fill-9"
     d="m 498.87919,86.227009 c 0.35272,12.018719 -6.82193,28.771481 -16.68084,38.961541 -4.89092,4.93889 -9.74954,7.54948 -14.05393,7.54948 -0.0125,0 -0.0251,0 -0.0335,0 -5.71352,-0.0475 -9.39414,-3.52743 -9.84896,-9.3107 0,-0.002 0,-0.005 0,-0.005 -0.85489,-10.22503 5.19415,-25.7262 14.0813,-36.068643 3.07921,-3.644841 9.30967,-9.83282 16.43979,-10.337452 0.36025,-0.02761 0.71075,-0.04247 1.0587,-0.04247 2.4877,0 4.60758,0.731966 6.1708,2.135941 1.77941,1.621314 2.77104,4.082017 2.86795,7.117301 z m 21.45745,-23.732664 c -6.76482,-6.527735 -17.16297,-9.403125 -30.06377,-8.313925 -43.18079,3.61486 -62.53075,48.41463 -60.79606,71.41782 1.39916,18.58892 13.9446,29.07127 34.58188,29.07127 0.92699,0 1.87138,-0.0201 2.8282,-0.0625 44.13761,-1.99105 60.79355,-48.08987 61.61368,-68.81473 0.40753,-9.785351 -2.41561,-17.841965 -8.16393,-23.297982 z" />
  <path
     inkscape:connector-curvature="0"
     style="fill:#00148f;fill-opacity:0.94117647;fill-rule:evenodd;stroke:none;stroke-width:4.18410015"
     id="Fill-10"
     d="m 338.07021,60.24599 c -0.82261,-1.68127 -2.46783,-2.64807 -4.51317,-2.65057 h -30.59312 c -0.33553,0 -0.64368,0.17988 -0.81019,0.47216 -0.16653,0.2923 -0.16401,0.65202 0.008,0.94181 2.96985,5.056311 -0.10439,10.764637 -3.51162,15.686042 -0.20377,0.299791 -20.13778,28.993818 -26.65155,38.366968 1.08107,-11.30674 4.38145,-45.86649 4.62003,-48.537038 0.16899,-1.866134 -0.45977,-3.729772 -1.72226,-5.116262 -1.04877,-1.15416 -2.4057,-1.81617 -3.72287,-1.81617 -0.002,0 -0.005,0 -0.005,0 h -27.86931 c -0.36038,0 -0.68592,0.20736 -0.84001,0.52961 -0.15657,0.32477 -0.11431,0.70948 0.10937,0.98928 2.5399,3.20765 2.98973,5.133747 3.1289,9.640453 v 1.558862 c 0,8.930975 -2.41316,76.216825 -2.438,76.918805 l -32.94961,41.87441 c -1.5483,1.97856 -3.23825,3.60987 -5.31341,5.14125 -0.32557,0.23732 -0.45977,0.65951 -0.33302,1.04673 0.12427,0.38222 0.48214,0.64453 0.88474,0.64453 h 27.36979 c 5.80797,0 7.00585,-0.79192 10.05771,-4.5192 L 337.73222,65.279813 c 1.00651,-1.316539 1.1432,-3.385033 0.33799,-5.033823" />
  <path
     inkscape:connector-curvature="0"
     style="fill:#00148f;fill-opacity:0.94117647;fill-rule:evenodd;stroke:none;stroke-width:4.18410015"
     id="Fill-11"
     d="m 179.38112,92.390004 c 2.6244,-6.003112 10.0428,-19.962915 22.26514,-19.962915 2.78842,0 4.96051,0.766942 6.44667,2.265845 1.57812,1.638803 2.34357,4.074523 2.27398,7.249703 -0.072,4.131983 -1.82912,8.641187 -2.57966,10.564781 l -0.20875,0.504632 h -28.47322 z m 28.23713,55.317086 c 0.28084,-0.56708 3.84465,-8.38887 7.47307,-16.35055 l 1.28486,-2.82294 c 0.16155,-0.35473 0.087,-0.77444 -0.1864,-1.04923 -0.27088,-0.27728 -0.68592,-0.35226 -1.04131,-0.19737 -5.35814,2.41074 -16.09929,6.45279 -27.83452,6.45279 -9.11829,0 -14.50378,-3.78473 -16.00734,-11.24928 -0.24104,-1.18914 -0.36284,-2.47819 -0.36284,-3.8322 0,-3.04528 0.57657,-6.46278 1.50107,-8.91099 l 0.10933,-0.28728 h 55.38821 c 0.39268,0 0.74309,-0.24732 0.8748,-0.61705 1.87138,-5.14874 5.41283,-17.337337 5.42277,-26.707993 0,-9.4431 -2.12487,-16.120723 -6.49141,-20.412587 -4.87601,-4.9264 -12.8014,-7.32215 -24.23343,-7.32215 -14.63549,0 -29.01252,6.54772 -40.47686,18.436532 -12.64235,13.202853 -20.1353,31.581928 -19.55376,47.967458 0.72818,19.24094 13.17667,31.97914 32.48687,33.24071 1.4961,0.0949 2.9599,0.13992 4.39636,0.13992 12.05831,0 21.84265,-3.13771 26.88517,-6.08556 0.15657,-0.0924 0.2833,-0.22732 0.36531,-0.39221 z" />
  <path
     inkscape:connector-curvature="0"
     style="fill:#00148f;fill-opacity:0.94117647;fill-rule:evenodd;stroke:none;stroke-width:4.18410015"
     id="Fill-12"
     d="m 432.41681,71.490273 c 0,-3.799723 -1.25753,-7.449556 -3.53649,-10.274993 -2.87042,-3.58988 -7.18728,-5.69834 -12.8312,-6.26042 -13.96448,-1.41147 -30.59561,6.92244 -36.89069,10.43487 l 0.33055,-0.721971 c 1.18794,-2.458209 0.69586,-4.164459 0.072,-5.166229 -0.81764,-1.31404 -2.16463,-1.9111 -3.06925,-1.9111 h -25.93581 c -0.41255,0 -0.77539,0.2723 -0.89468,0.67201 -0.11682,0.39719 0.0423,0.82439 0.38769,1.05173 0.36532,0.23732 1.07611,1.87863 1.07611,3.305087 0,1.616318 -0.40511,3.230138 -1.27989,5.09128 l -34.80807,77.223583 -0.3877,0.80441 c -0.42497,0.90434 -0.95432,2.02852 -2.17954,4.06703 -0.17397,0.28728 -0.17895,0.64952 -0.0125,0.94431 0.16401,0.29477 0.47468,0.47715 0.81018,0.47715 h 24.12408 c 3.36003,-0.11992 5.02761,-1.45893 6.86171,-5.51347 l 23.10514,-51.090173 c 3.27304,-7.304665 11.20091,-16.033288 22.77957,-16.592882 3.80488,-0.204854 6.42431,0.724472 7.80112,2.755489 2.26653,3.362544 0.0347,8.491297 -0.44236,9.498062 l -24.73545,54.705034 c -0.92451,2.08597 -1.03386,3.78474 -0.31067,4.90891 0.38523,0.60206 1.18794,1.31904 2.83067,1.32903 h 30.10354 c 0.34544,0 0.66106,-0.19234 0.8226,-0.49713 0.16155,-0.30477 0.14415,-0.67451 -0.0472,-0.9618 -1.10096,-1.65129 -2.51505,-7.47204 0.44485,-14.02975 l 21.20891,-47.095595 c 1.85151,-3.959611 3.72289,-8.383878 4.48582,-15.056501 0.0845,-0.706983 0.11674,-1.391485 0.11674,-2.095971" />
  <path
     inkscape:connector-curvature="0"
     style="fill:#00148f;fill-opacity:0.94117647;fill-rule:evenodd;stroke:none;stroke-width:4.18410015"
     id="Fill-13"
     d="m 601.60596,21.88401 c -0.76791,-1.23909 -2.11987,-1.97605 -3.70795,-2.02602 -0.008,0 -0.0167,0 -0.0293,0 l -28.5105,-0.0125 c -0.35774,0 -0.68841,0.20985 -0.84251,0.53461 -0.15397,0.32726 -0.10669,0.71448 0.12176,0.99677 2.72874,3.36005 2.07515,8.34891 1.02389,10.70219 l -51.99585,115.1134 -0.16402,0.39719 c -0.50448,1.23161 -0.62377,1.52389 -1.14071,2.061 -0.26109,0.26979 -0.33557,0.66951 -0.18871,1.01676 0.14436,0.34724 0.48214,0.57208 0.85741,0.57208 l 23.97,-0.002 c 3.38983,-0.20984 4.99033,-1.5089 6.84431,-5.55844 L 601.69793,26.94781 c 0.81514,-1.81117 0.78037,-3.65732 -0.092,-5.0638" />
  <path
     inkscape:connector-curvature="0"
     style="fill:#00148f;fill-opacity:0.94117647;fill-rule:evenodd;stroke:none;stroke-width:4.18410015"
     id="Fill-14"
     d="M 643.50437,95.817502 633.43675,117.719 c -2.97732,6.67512 -9.46125,14.46943 -17.93092,14.46943 -2.8605,0 -5.3805,-1.01176 -7.12761,-2.88039 -1.82665,-1.77371 -2.71389,-4.50671 -2.56975,-7.89674 0,-0.002 0,-0.002 0,-0.002 0.69092,-17.46973 15.89301,-45.284412 32.60866,-45.284412 5.12703,0 8.2087,2.051 8.91201,5.948155 0.52188,2.610589 -0.54925,6.465275 -3.82477,13.744957 z m 7.96268,46.291178 52.35874,-115.14088 c 0.9046,-2.10846 0.92698,-4.01207 0.0598,-5.35359 -0.72092,-1.11418 -1.99335,-1.73873 -3.59632,-1.75622 l -29.98426,-0.01 c -0.41005,0 -0.77289,0.26731 -0.89218,0.66202 -0.11925,0.39471 0.0335,0.8194 0.37029,1.05173 2.11741,1.43395 3.35507,7.58696 0.47967,13.94981 l -0.29833,0.65952 c -6.87912,15.1914 -11.53891,25.46639 -13.33322,29.398522 -2.91519,-5.096272 -9.59297,-9.947732 -20.74916,-9.947732 -13.40778,0 -27.10138,6.73008 -38.56322,18.953652 -13.92226,14.966568 -22.56586,36.046168 -21.50715,52.454178 1.44142,21.84404 16.38757,25.09417 22.74477,25.47639 0.42748,0.0276 0.85493,0.0402 1.28983,0.0402 9.89866,0 21.11447,-6.80253 25.92339,-10.06515 l -0.70331,2.06849 c -0.5418,1.51639 -1.36192,3.80722 -0.23347,5.37857 0.6536,0.90933 1.80673,1.32403 3.43707,1.30654 h 23.00322 c 0.39749,0 0.75054,-0.25481 0.88226,-0.63203 0.12929,-0.37724 0.008,-0.79442 -0.30586,-1.04174 -0.63623,-0.49964 -2.53494,-2.51567 -0.38285,-7.45206 z" />
  <path
     inkscape:connector-curvature="0"
     style="fill:#00148f;fill-opacity:0.94117647;fill-rule:evenodd;stroke:none;stroke-width:4.18410015"
     id="Fill-15"
     d="m 759.56938,59.04187 c -7.76385,-3.02279 -16.72062,-4.64161 -25.90598,-4.68158 -0.0335,0 -0.0649,0 -0.0971,0 -12.36895,0 -23.12004,3.89715 -30.28247,10.976979 -0.002,0.0025 -0.002,0.0025 -0.004,0.005 -5.66632,5.683347 -8.64858,13.025485 -8.61875,21.229493 0.0293,7.317154 3.18109,12.770669 6.24038,18.066798 l 0.14393,0.24481 c 2.69649,4.68908 5.24632,9.11834 5.24632,14.33703 0,2.89038 -1.13326,5.58841 -3.16866,7.58196 -2.37339,2.1884 -5.79305,3.35255 -9.40904,3.22014 -6.56351,-0.27728 -12.40627,-2.70552 -17.36677,-7.21722 -0.21883,-0.20234 -0.52189,-0.28481 -0.82013,-0.22235 -0.29079,0.0625 -0.53682,0.26231 -0.65858,0.53961 -1.1233,2.56063 -9.12079,20.19275 -9.93343,21.97645 -0.1841,0.40222 -0.0619,0.87686 0.28829,1.14166 6.32987,4.73904 14.971,7.29217 26.41795,7.8043 0.94188,0.045 1.85895,0.0625 2.76108,0.0625 29.66113,0 38.91117,-22.1838 39.61448,-34.26497 0.48711,-8.24648 -2.66414,-14.41197 -5.71356,-20.372618 l -0.11924,-0.232343 c -2.65419,-4.91141 -4.6772,-9.020907 -4.56536,-13.447673 0.0996,-3.47746 2.58962,-9.363162 11.30778,-9.363162 5.17921,0 10.10494,1.506401 14.63548,4.474234 0.22636,0.152385 0.50205,0.192343 0.77293,0.114895 0.25858,-0.07745 0.47469,-0.264812 0.58649,-0.514627 0.42251,-0.93931 1.76205,-3.887159 3.2979,-7.262193 2.38084,-5.238673 5.22892,-11.509093 5.86515,-12.943043 0.10418,-0.23481 0.10669,-0.50213 0.008,-0.73946 -0.0971,-0.23732 -0.28578,-0.42219 -0.52435,-0.51462" />
</svg>
